<?xml version="1.0" encoding="UTF-8" standalone="no"?>
<!DOCTYPE svg PUBLIC "-//W3C//DTD SVG 1.1//EN" "http://www.w3.org/Graphics/SVG/1.1/DTD/svg11.dtd">
<svg width="100%" height="100%" viewBox="0 0 500 500" version="1.1" xmlns="http://www.w3.org/2000/svg" xmlns:xlink="http://www.w3.org/1999/xlink" xml:space="preserve" xmlns:serif="http://www.serif.com/" style="fill-rule:evenodd;clip-rule:evenodd;stroke-linejoin:round;stroke-miterlimit:2;">
    <g transform="matrix(2.078535,0,0,2.078535,-38.384138,-534.183455)">
        <circle cx="133.5" cy="333.5" r="76.5" style="fill:white;"/>
    </g>
    <g transform="matrix(1.34442,0,0,1.282322,-74.38242,-207.736148)">
        <rect x="133.5" y="295" width="206.5" height="115" style="fill:white;"/>
    </g>
    <g transform="matrix(1.282322,0,0,1.282322,-66.092348,-207.736148)">
        <circle cx="133.5" cy="333.5" r="76.5" style="fill:white;"/>
    </g>
    <g transform="matrix(1.441564,0,0,1.441564,190.271457,-273.025609)">
        <circle cx="133.5" cy="333.5" r="76.5" style="fill:white;"/>
    </g>
    <g transform="matrix(1.468157,0,0,1.468157,161.51565,-244.365834)">
        <path d="M134.995,393.981C139.469,393.803 151,420.945 151,429.5C151,438.055 144.055,445 135.5,445C126.945,445 120,438.055 120,429.5C120,420.945 131.203,394.133 134.995,393.981Z" style="fill:rgb(0,219,255);"/>
    </g>
    <g transform="matrix(1.468157,0,0,1.468157,50.921631,-244.365834)">
        <path d="M134.995,393.981C139.469,393.803 151,420.945 151,429.5C151,438.055 144.055,445 135.5,445C126.945,445 120,438.055 120,429.5C120,420.945 131.203,394.133 134.995,393.981Z" style="fill:rgb(0,219,255);"/>
    </g>
    <g transform="matrix(1.468157,0,0,1.468157,106.218641,-152.833697)">
        <path d="M134.995,393.981C139.469,393.803 151,420.945 151,429.5C151,438.055 144.055,445 135.5,445C126.945,445 120,438.055 120,429.5C120,420.945 131.203,394.133 134.995,393.981Z" style="fill:rgb(0,219,255);"/>
    </g>
    <g transform="matrix(1.468157,0,0,1.468157,-4.375378,-152.833697)">
        <path d="M134.995,393.981C139.469,393.803 151,420.945 151,429.5C151,438.055 144.055,445 135.5,445C126.945,445 120,438.055 120,429.5C120,420.945 131.203,394.133 134.995,393.981Z" style="fill:rgb(0,219,255);"/>
    </g>
    <g transform="matrix(1.468157,0,0,1.468157,-59.386329,-244.365834)">
        <path d="M134.995,393.981C139.469,393.803 151,420.945 151,429.5C151,438.055 144.055,445 135.5,445C126.945,445 120,438.055 120,429.5C120,420.945 131.203,394.133 134.995,393.981Z" style="fill:rgb(0,219,255);"/>
    </g>
</svg>
