<?xml version="1.0" encoding="UTF-8" standalone="no"?>
<!DOCTYPE svg PUBLIC "-//W3C//DTD SVG 1.1//EN" "http://www.w3.org/Graphics/SVG/1.1/DTD/svg11.dtd">
<svg width="100%" height="100%" viewBox="0 0 500 500" version="1.1" xmlns="http://www.w3.org/2000/svg" xmlns:xlink="http://www.w3.org/1999/xlink" xml:space="preserve" xmlns:serif="http://www.serif.com/" style="fill-rule:evenodd;clip-rule:evenodd;stroke-linejoin:round;stroke-miterlimit:2;">
    <g transform="matrix(2.078535,0,0,2.078535,-38.384138,-534.183455)">
        <circle cx="133.5" cy="333.5" r="76.5" style="fill:white;"/>
    </g>
    <g transform="matrix(1.34442,0,0,1.282322,-74.38242,-207.736148)">
        <rect x="133.5" y="295" width="206.5" height="115" style="fill:white;"/>
    </g>
    <g transform="matrix(1.282322,0,0,1.282322,-66.092348,-207.736148)">
        <circle cx="133.5" cy="333.5" r="76.5" style="fill:white;"/>
    </g>
    <g transform="matrix(1.441564,0,0,1.441564,190.271457,-273.025609)">
        <circle cx="133.5" cy="333.5" r="76.5" style="fill:white;"/>
    </g>
    <g transform="matrix(0,-1,0.666667,0,-100.451187,506.5)">
        <rect x="94" y="345" width="78" height="15" style="fill:rgb(0,219,255);"/>
    </g>
    <g transform="matrix(-1,0,0,-0.666667,267.548813,608.5)">
        <rect x="94" y="345" width="78" height="15" style="fill:rgb(0,219,255);"/>
    </g>
    <g transform="matrix(-0.514799,0.514799,-0.471405,-0.471405,369.187185,471.201815)">
        <rect x="94" y="345" width="78" height="15" style="fill:rgb(0,219,255);"/>
    </g>
    <g transform="matrix(0.514799,0.514799,-0.471405,0.471405,232.250627,138.861628)">
        <rect x="94" y="345" width="78" height="15" style="fill:rgb(0,219,255);"/>
    </g>
    <g transform="matrix(0,-1,0.666667,0,15,506.5)">
        <rect x="94" y="345" width="78" height="15" style="fill:rgb(0,219,255);"/>
    </g>
    <g transform="matrix(-1,0,0,-0.666667,383,608.5)">
        <rect x="94" y="345" width="78" height="15" style="fill:rgb(0,219,255);"/>
    </g>
    <g transform="matrix(-0.514799,0.514799,-0.471405,-0.471405,484.638372,471.201815)">
        <rect x="94" y="345" width="78" height="15" style="fill:rgb(0,219,255);"/>
    </g>
    <g transform="matrix(0.514799,0.514799,-0.471405,0.471405,347.701815,138.861628)">
        <rect x="94" y="345" width="78" height="15" style="fill:rgb(0,219,255);"/>
    </g>
    <g transform="matrix(0,-1,0.666667,0,-42.725594,594)">
        <rect x="94" y="345" width="78" height="15" style="fill:rgb(0,219,255);"/>
    </g>
    <g transform="matrix(-1,0,0,-0.666667,325.274406,696)">
        <rect x="94" y="345" width="78" height="15" style="fill:rgb(0,219,255);"/>
    </g>
    <g transform="matrix(-0.514799,0.514799,-0.471405,-0.471405,426.912779,558.701815)">
        <rect x="94" y="345" width="78" height="15" style="fill:rgb(0,219,255);"/>
    </g>
    <g transform="matrix(0.514799,0.514799,-0.471405,0.471405,289.976221,226.361628)">
        <rect x="94" y="345" width="78" height="15" style="fill:rgb(0,219,255);"/>
    </g>
    <g transform="matrix(0,-1,0.666667,0,72.725594,594)">
        <rect x="94" y="345" width="78" height="15" style="fill:rgb(0,219,255);"/>
    </g>
    <g transform="matrix(-1,0,0,-0.666667,440.725594,696)">
        <rect x="94" y="345" width="78" height="15" style="fill:rgb(0,219,255);"/>
    </g>
    <g transform="matrix(-0.514799,0.514799,-0.471405,-0.471405,542.363966,558.701815)">
        <rect x="94" y="345" width="78" height="15" style="fill:rgb(0,219,255);"/>
    </g>
    <g transform="matrix(0.514799,0.514799,-0.471405,0.471405,405.427408,226.361628)">
        <rect x="94" y="345" width="78" height="15" style="fill:rgb(0,219,255);"/>
    </g>
    <g transform="matrix(0,-1,0.666667,0,130,506.5)">
        <rect x="94" y="345" width="78" height="15" style="fill:rgb(0,219,255);"/>
    </g>
    <g transform="matrix(-1,0,0,-0.666667,498,608.5)">
        <rect x="94" y="345" width="78" height="15" style="fill:rgb(0,219,255);"/>
    </g>
    <g transform="matrix(-0.514799,0.514799,-0.471405,-0.471405,599.638372,471.201815)">
        <rect x="94" y="345" width="78" height="15" style="fill:rgb(0,219,255);"/>
    </g>
    <g transform="matrix(0.514799,0.514799,-0.471405,0.471405,462.701815,138.861628)">
        <rect x="94" y="345" width="78" height="15" style="fill:rgb(0,219,255);"/>
    </g>
</svg>
